HIERARCHY
ROOT Hips
{
	OFFSET -93.087357 86.214508 68.756111
	CHANNELS 6 Xposition Yposition Zposition Zrotation Yrotation Xrotation 
	JOINT Spine
	{
		OFFSET -0.000000 8.814246 -2.080107
		CHANNELS 3 Zrotation Yrotation Xrotation
		JOINT Spine1
		{
			OFFSET -0.000000 8.844141 0.000000
			CHANNELS 3 Zrotation Yrotation Xrotation
			JOINT Spine2
			{
				OFFSET 0.000000 11.682268 0.000000
				CHANNELS 3 Zrotation Yrotation Xrotation
				JOINT Spine3
				{
					OFFSET 0.000000 11.746700 0.000000
					CHANNELS 3 Zrotation Yrotation Xrotation
					JOINT Neck
					{
						OFFSET -0.000000 17.658264 -0.000000
						CHANNELS 3 Zrotation Yrotation Xrotation
						JOINT Neck1
						{
							OFFSET 0.000000 5.101515 0.000000
							CHANNELS 3 Zrotation Yrotation Xrotation
							JOINT Head
							{
								OFFSET 0.000000 5.101515 0.000000
								CHANNELS 3 Zrotation Yrotation Xrotation
								JOINT HeadEnd
								{
									OFFSET 0.000000 11.655085 -0.000000
									CHANNELS 3 Zrotation Yrotation Xrotation
									End Site
									{
										OFFSET 0.000000 0.000000 0.000000
									}
								}
							}
						}
					}
					JOINT RightShoulder
					{
						OFFSET -2.625389 11.175210 -0.000000
						CHANNELS 3 Zrotation Yrotation Xrotation
						JOINT RightArm
						{
							OFFSET -0.000000 10.434715 -0.000000
							CHANNELS 3 Zrotation Yrotation Xrotation
							JOINT RightForeArm
							{
								OFFSET 0.000000 29.628420 0.000000
								CHANNELS 3 Zrotation Yrotation Xrotation
								JOINT RightHand
								{
									OFFSET -0.000000 22.857611 -0.000000
									CHANNELS 3 Zrotation Yrotation Xrotation
									JOINT RightHandThumb1
									{
										OFFSET -2.867323 3.959563 2.944291
										CHANNELS 3 Zrotation Yrotation Xrotation
										JOINT RightHandThumb2
										{
											OFFSET 0.000000 3.350399 0.000000
											CHANNELS 3 Zrotation Yrotation Xrotation
											JOINT RightHandThumb3
											{
												OFFSET 0.000000 3.756509 -0.000000
												CHANNELS 3 Zrotation Yrotation Xrotation
												JOINT RightHandThumb4
												{
													OFFSET 0.000000 3.147345 0.000000
													CHANNELS 3 Zrotation Yrotation Xrotation
													End Site
													{
														OFFSET 0.000000 0.000000 0.000000
													}
												}
											}
										}
									}
									JOINT RightHandIndex1
									{
										OFFSET -0.086752 10.030893 2.345280
										CHANNELS 3 Zrotation Yrotation Xrotation
										JOINT RightHandIndex2
										{
											OFFSET 0.000000 4.061090 0.000000
											CHANNELS 3 Zrotation Yrotation Xrotation
											JOINT RightHandIndex3
											{
												OFFSET 0.000000 3.248873 0.000000
												CHANNELS 3 Zrotation Yrotation Xrotation
												JOINT RightHandIndex4
												{
													OFFSET 0.000000 2.639709 0.000000
													CHANNELS 3 Zrotation Yrotation Xrotation
													End Site
													{
														OFFSET 0.000000 0.000000 0.000000
													}
												}
											}
										}
									}
									JOINT RightHandMiddle1
									{
										OFFSET 0.104102 9.502952 0.006768
										CHANNELS 3 Zrotation Yrotation Xrotation
										JOINT RightHandMiddle2
										{
											OFFSET 0.000000 4.568727 0.000000
											CHANNELS 3 Zrotation Yrotation Xrotation
											JOINT RightHandMiddle3
											{
												OFFSET -0.000000 3.654981 -0.000000
												CHANNELS 3 Zrotation Yrotation Xrotation
												JOINT RightHandMiddle4
												{
													OFFSET 0.000000 2.741236 0.000000
													CHANNELS 3 Zrotation Yrotation Xrotation
													End Site
													{
														OFFSET 0.000000 0.000000 0.000000
													}
												}
											}
										}
									}
									JOINT RightHandRing1
									{
										OFFSET 0.086752 8.921708 -2.267442
										CHANNELS 3 Zrotation Yrotation Xrotation
										JOINT RightHandRing2
										{
											OFFSET -0.000000 4.061090 0.000000
											CHANNELS 3 Zrotation Yrotation Xrotation
											JOINT RightHandRing3
											{
												OFFSET -0.000000 3.654981 -0.000000
												CHANNELS 3 Zrotation Yrotation Xrotation
												JOINT RightHandRing4
												{
													OFFSET 0.000000 2.741236 0.000000
													CHANNELS 3 Zrotation Yrotation Xrotation
													End Site
													{
														OFFSET 0.000000 0.000000 0.000000
													}
												}
											}
										}
									}
									JOINT RightHandPinky1
									{
										OFFSET -0.173504 7.976997 -4.467199
										CHANNELS 3 Zrotation Yrotation Xrotation
										JOINT RightHandPinky2
										{
											OFFSET 0.000000 3.350399 0.000000
											CHANNELS 3 Zrotation Yrotation Xrotation
											JOINT RightHandPinky3
											{
												OFFSET 0.000000 2.842763 0.000000
												CHANNELS 3 Zrotation Yrotation Xrotation
												JOINT RightHandPinky4
												{
													OFFSET 0.000000 2.639709 0.000000
													CHANNELS 3 Zrotation Yrotation Xrotation
													End Site
													{
														OFFSET 0.000000 0.000000 0.000000
													}
												}
											}
										}
									}
									JOINT RightForeArmEnd
									{
										OFFSET 0.000000 0.000000 0.000000
										CHANNELS 3 Zrotation Yrotation Xrotation
										End Site
										{
											OFFSET 0.000000 0.000000 0.000000
										}
									}
								}
								JOINT RightArmEnd
								{
									OFFSET 0.000000 0.000000 0.000000
									CHANNELS 3 Zrotation Yrotation Xrotation
									End Site
									{
										OFFSET 0.000000 0.000000 0.000000
									}
								}
							}
						}
					}
					JOINT LeftShoulder
					{
						OFFSET 2.625389 11.175210 -0.000000
						CHANNELS 3 Zrotation Yrotation Xrotation
						JOINT LeftArm
						{
							OFFSET 0.000000 10.813635 0.000000
							CHANNELS 3 Zrotation Yrotation Xrotation
							JOINT LeftForeArm
							{
								OFFSET 0.000000 28.724781 -0.000000
								CHANNELS 3 Zrotation Yrotation Xrotation
								JOINT LeftHand
								{
									OFFSET 0.644384 25.716167 -0.328871
									CHANNELS 3 Zrotation Yrotation Xrotation
									JOINT LeftHandThumb1
									{
										OFFSET 2.867323 3.959563 2.944291
										CHANNELS 3 Zrotation Yrotation Xrotation
										JOINT LeftHandThumb2
										{
											OFFSET -0.000000 3.350399 -0.000000
											CHANNELS 3 Zrotation Yrotation Xrotation
											JOINT LeftHandThumb3
											{
												OFFSET 0.000000 3.756509 -0.000000
												CHANNELS 3 Zrotation Yrotation Xrotation
												JOINT LeftHandThumb4
												{
													OFFSET 0.000000 3.100000 -0.000000
													CHANNELS 3 Zrotation Yrotation Xrotation
													End Site
													{
														OFFSET 0.000000 0.000000 0.000000
													}
												}
											}
										}
									}
									JOINT LeftHandIndex1
									{
										OFFSET 0.086752 10.030893 2.345280
										CHANNELS 3 Zrotation Yrotation Xrotation
										JOINT LeftHandIndex2
										{
											OFFSET -0.000000 4.061090 0.000000
											CHANNELS 3 Zrotation Yrotation Xrotation
											JOINT LeftHandIndex3
											{
												OFFSET -0.000000 3.248873 0.000000
												CHANNELS 3 Zrotation Yrotation Xrotation
												JOINT LeftHandIndex4
												{
													OFFSET 0.000000 2.639709 -0.000000
													CHANNELS 3 Zrotation Yrotation Xrotation
													End Site
													{
														OFFSET 0.000000 0.000000 0.000000
													}
												}
											}
										}
									}
									JOINT LeftHandMiddle1
									{
										OFFSET -0.104102 9.502952 0.006768
										CHANNELS 3 Zrotation Yrotation Xrotation
										JOINT LeftHandMiddle2
										{
											OFFSET -0.000000 4.568727 0.000000
											CHANNELS 3 Zrotation Yrotation Xrotation
											JOINT LeftHandMiddle3
											{
												OFFSET 0.000000 3.654981 -0.000000
												CHANNELS 3 Zrotation Yrotation Xrotation
												JOINT LeftHandMiddle4
												{
													OFFSET -0.000000 2.741236 0.000000
													CHANNELS 3 Zrotation Yrotation Xrotation
													End Site
													{
														OFFSET 0.000000 0.000000 0.000000
													}
												}
											}
										}
									}
									JOINT LeftHandRing1
									{
										OFFSET -0.086752 8.921708 -2.267442
										CHANNELS 3 Zrotation Yrotation Xrotation
										JOINT LeftHandRing2
										{
											OFFSET -0.000000 4.061090 0.000000
											CHANNELS 3 Zrotation Yrotation Xrotation
											JOINT LeftHandRing3
											{
												OFFSET 0.000000 3.654981 -0.000000
												CHANNELS 3 Zrotation Yrotation Xrotation
												JOINT LeftHandRing4
												{
													OFFSET 0.000000 2.741236 -0.000000
													CHANNELS 3 Zrotation Yrotation Xrotation
													End Site
													{
														OFFSET 0.000000 0.000000 0.000000
													}
												}
											}
										}
									}
									JOINT LeftHandPinky1
									{
										OFFSET 0.173504 7.976997 -4.467199
										CHANNELS 3 Zrotation Yrotation Xrotation
										JOINT LeftHandPinky2
										{
											OFFSET 0.000000 3.350399 0.000000
											CHANNELS 3 Zrotation Yrotation Xrotation
											JOINT LeftHandPinky3
											{
												OFFSET -0.000000 2.842763 0.000000
												CHANNELS 3 Zrotation Yrotation Xrotation
												JOINT LeftHandPinky4
												{
													OFFSET 0.000000 2.639709 -0.000000
													CHANNELS 3 Zrotation Yrotation Xrotation
													End Site
													{
														OFFSET 0.000000 0.000000 0.000000
													}
												}
											}
										}
									}
									JOINT LeftForeArmEnd
									{
										OFFSET 0.000000 0.000000 0.000000
										CHANNELS 3 Zrotation Yrotation Xrotation
										End Site
										{
											OFFSET 0.000000 0.000000 0.000000
										}
									}
								}
								JOINT LeftArmEnd
								{
									OFFSET 0.000000 0.000000 0.000000
									CHANNELS 3 Zrotation Yrotation Xrotation
									End Site
									{
										OFFSET 0.000000 0.000000 0.000000
									}
								}
							}
						}
					}
				}
			}
		}
	}
	JOINT RightUpLeg
	{
		OFFSET -11.289943 0.000000 -0.000000
		CHANNELS 3 Zrotation Yrotation Xrotation
		JOINT RightLeg
		{
			OFFSET 0.000000 -38.200325 0.000000
			CHANNELS 3 Zrotation Yrotation Xrotation
			JOINT RightFoot
			{
				OFFSET -0.000000 -39.900856 0.000000
				CHANNELS 3 Zrotation Yrotation Xrotation
				JOINT RightToeBase
				{
					OFFSET -0.000000 -0.000000 15.261641
					CHANNELS 3 Zrotation Yrotation Xrotation
					JOINT RightToeBaseEnd
					{
						OFFSET -0.000000 0.000000 7.370709
						CHANNELS 3 Zrotation Yrotation Xrotation
						End Site
						{
							OFFSET 0.000000 0.000000 0.000000
						}
					}
				}
				JOINT RightLegEnd
				{
					OFFSET 0.000000 0.000000 0.000000
					CHANNELS 3 Zrotation Yrotation Xrotation
					End Site
					{
						OFFSET 0.000000 0.000000 0.000000
					}
				}
			}
			JOINT RightUpLegEnd
			{
				OFFSET 0.000000 0.000000 0.000000
				CHANNELS 3 Zrotation Yrotation Xrotation
				End Site
				{
					OFFSET 0.000000 0.000000 0.000000
				}
			}
		}
	}
	JOINT LeftUpLeg
	{
		OFFSET 11.315661 0.000000 -0.000000
		CHANNELS 3 Zrotation Yrotation Xrotation
		JOINT LeftLeg
		{
			OFFSET -0.000000 -38.200325 0.000000
			CHANNELS 3 Zrotation Yrotation Xrotation
			JOINT LeftFoot
			{
				OFFSET 0.000000 -39.900856 0.000000
				CHANNELS 3 Zrotation Yrotation Xrotation
				JOINT LeftToeBase
				{
					OFFSET -0.000000 -0.000000 15.261641
					CHANNELS 3 Zrotation Yrotation Xrotation
					JOINT LeftToeBaseEnd
					{
						OFFSET 0.000000 -0.000000 7.539996
						CHANNELS 3 Zrotation Yrotation Xrotation
						End Site
						{
							OFFSET 0.000000 0.000000 0.000000
						}
					}
				}
				JOINT LeftLegEnd
				{
					OFFSET 0.000000 0.000000 0.000000
					CHANNELS 3 Zrotation Yrotation Xrotation
					End Site
					{
						OFFSET 0.000000 0.000000 0.000000
					}
				}
			}
			JOINT LeftUpLegEnd
			{
				OFFSET 0.000000 0.000000 0.000000
				CHANNELS 3 Zrotation Yrotation Xrotation
				End Site
				{
					OFFSET 0.000000 0.000000 0.000000
				}
			}
		}
	}
}
MOTION
Frames: 5
Frame Time: 0.016667
-93.087357 86.214508 68.756111 -4.263622 24.697826 -15.413105 3.631011 -0.595298 5.108751 3.896308 -0.716699 4.059887 -0.672503 1.540240 8.617528 -1.668208 1.012815 0.834428 7.812247 -1.417480 15.980395 -4.376727 -1.452238 -3.686967 -0.475873 2.833777 -22.655769 -0.000000 -0.000000 0.000000 87.555206 0.471808 10.086104 16.273832 3.658112 20.151031 -0.160791 14.335616 113.057991 46.808838 58.265427 46.742981 16.037004 -2.083213 37.605560 0.000000 -0.000000 -38.880001 0.000000 0.000000 -27.000000 0.000000 0.000000 0.000000 41.480354 0.000000 -10.151232 29.036247 -0.000000 0.000000 29.036247 0.000000 -0.000000 0.000000 0.000000 0.000000 41.551056 0.000000 -10.195115 29.085739 -0.000000 0.000000 29.085739 -0.000000 0.000000 -0.000000 -0.000000 -0.000000 43.491203 -0.000000 -9.845050 30.443842 0.000000 -0.000000 30.443842 0.000000 0.000000 -0.000000 -0.000000 0.000000 43.242256 0.000000 -10.757680 30.269579 -0.000000 -0.000000 30.269579 0.000000 0.000000 -0.000000 0.000000 -0.000000 -0.000000 -0.000000 -0.000000 0.000000 0.000000 -0.000000 -87.524300 -0.468751 9.117370 -23.802521 0.505934 17.014898 -0.247823 -22.509733 102.702156 -73.543045 -47.568913 56.585583 -13.035290 2.000802 38.833199 -0.000000 0.000000 -31.680000 -0.000000 -0.000000 -22.000000 -0.000000 0.000000 0.000000 -30.768162 0.000000 -21.555424 -21.537714 -0.000000 0.000000 -21.537714 0.000000 -0.000000 0.000000 0.000000 0.000000 -31.757641 0.000000 -19.986134 -22.230349 -0.000000 -0.000000 -22.230349 -0.000000 -0.000000 0.000000 -0.000000 0.000000 -35.798618 0.000000 -15.698473 -25.059034 -0.000000 -0.000000 -25.059034 0.000000 0.000000 0.000000 0.000000 0.000000 -37.751358 0.000000 -11.525059 -26.425951 0.000000 0.000000 -26.425951 -0.000000 -0.000000 -0.000000 -0.000000 -0.000000 -0.000000 0.000000 -0.000000 -0.000000 -0.000000 -0.000000 7.509617 -2.354466 12.424798 -0.075747 -0.296314 14.299746 -8.042437 -14.589621 14.726253 0.243729 -0.988214 -28.767105 -0.000000 -0.000000 -0.000000 0.000000 -0.000000 0.000000 -0.000000 0.000000 -0.000000 18.895018 -5.099514 -2.497498 1.076017 1.625200 33.517960 -1.766359 3.579707 21.038790 0.047120 1.792964 -30.787855 -0.000000 0.000000 -0.000000 0.000000 0.000000 -0.000000 0.000000 0.000000 0.000000 
-93.264366 86.229958 68.867462 -4.072518 25.204557 -15.277457 3.558034 -0.587409 5.054962 4.045466 -0.757982 4.115930 -0.909638 1.603051 8.314476 -1.730948 1.013494 0.712765 7.626571 -1.575667 15.610896 -4.507303 -1.752100 -3.899558 -0.458775 2.814786 -22.754751 -0.000000 -0.000000 0.000000 87.615005 0.453227 9.901276 16.427187 5.653259 19.114494 -0.122684 13.841306 114.814285 46.757538 57.261429 47.419159 16.337215 -2.084532 37.487408 0.000000 -0.000000 -39.599998 0.000000 0.000000 -27.500000 -0.000000 0.000000 -0.000000 41.955147 -0.000000 -10.416177 29.368603 -0.000000 0.000000 29.368603 -0.000000 0.000000 0.000000 0.000000 -0.000000 42.067596 -0.000000 -10.352228 29.447317 -0.000000 0.000000 29.447317 -0.000000 -0.000000 -0.000000 -0.000000 0.000000 44.162903 -0.000000 -9.873137 30.914030 0.000000 0.000000 30.914030 0.000000 -0.000000 -0.000000 -0.000000 0.000000 44.041237 -0.000000 -10.684937 30.828867 -0.000000 0.000000 30.828867 0.000000 -0.000000 0.000000 0.000000 0.000000 0.000000 -0.000000 -0.000000 0.000000 0.000000 -0.000000 -87.547516 -0.458879 8.987902 -24.261595 -0.805562 16.141356 -0.128280 -22.564810 104.093140 -73.549637 -46.867859 56.917675 -13.035290 2.000802 38.833199 -0.000000 -0.000000 -31.680000 0.000000 0.000000 -22.000000 -0.000000 -0.000000 0.000000 -31.563787 0.000000 -21.408873 -22.094652 0.000000 0.000000 -22.094652 0.000000 0.000000 0.000000 -0.000000 0.000000 -32.578983 0.000000 -19.828667 -22.805286 -0.000000 -0.000000 -22.805286 0.000000 0.000000 0.000000 -0.000000 -0.000000 -36.727776 0.000000 -15.461974 -25.709442 -0.000000 -0.000000 -25.709442 0.000000 -0.000000 -0.000000 0.000000 0.000000 -38.755192 0.000000 -11.188976 -27.128633 -0.000000 0.000000 -27.128633 0.000000 0.000000 -0.000000 -0.000000 -0.000000 -0.000000 0.000000 -0.000000 -0.000000 -0.000000 -0.000000 7.471264 -2.519908 12.492817 -0.072923 -0.289551 14.115878 -8.166797 -14.931920 14.738058 0.236879 -1.004139 -28.728971 -0.000000 -0.000000 -0.000000 0.000000 0.000000 0.000000 -0.000000 0.000000 -0.000000 18.763681 -5.220840 -2.722453 1.078645 1.638307 33.367680 -1.683440 3.494807 21.479740 -0.042212 1.748878 -30.896023 -0.000000 0.000000 -0.000000 0.000000 0.000000 -0.000000 0.000000 0.000000 -0.000000 
-93.430420 86.239502 68.975616 -3.898930 25.705412 -15.208689 3.502957 -0.584313 5.019695 4.177037 -0.792948 4.155911 -1.106223 1.648382 8.075393 -1.808879 1.013138 0.613887 7.335335 -1.699167 15.261558 -4.613867 -2.036766 -4.108473 -0.429806 2.801170 -22.852474 -0.000000 -0.000000 0.000000 87.644295 0.441786 9.753427 16.699715 7.770797 18.232880 -0.106561 13.342458 116.155289 47.532318 56.781975 48.996155 16.337215 -2.084532 37.487408 -0.000000 0.000000 -39.599998 0.000000 0.000000 -27.500000 -0.000000 0.000000 -0.000000 42.682297 0.000000 -11.225493 29.877607 -0.000000 0.000000 29.877607 -0.000000 0.000000 0.000000 0.000000 -0.000000 42.773708 0.000000 -11.042835 29.941595 0.000000 -0.000000 29.941595 0.000000 -0.000000 -0.000000 -0.000000 0.000000 44.926502 -0.000000 -10.431113 31.448553 -0.000000 0.000000 31.448553 -0.000000 0.000000 -0.000000 -0.000000 0.000000 44.848671 0.000000 -11.151340 31.394070 -0.000000 0.000000 31.394070 -0.000000 0.000000 0.000000 0.000000 0.000000 0.000000 0.000000 -0.000000 0.000000 0.000000 -0.000000 -87.584167 -0.450302 8.934676 -24.826281 -2.123496 15.402575 -3.042871 -21.885529 106.405029 -70.624748 -45.342987 53.382263 -13.335325 2.014824 38.706818 0.000000 -0.000000 -32.400002 -0.000000 0.000000 -22.500000 -0.000000 -0.000000 0.000000 -32.524708 0.000000 -21.553831 -22.767296 -0.000000 -0.000000 -22.767296 -0.000000 -0.000000 -0.000000 -0.000000 -0.000000 -33.599770 0.000000 -19.880190 -23.519838 -0.000000 -0.000000 -23.519838 0.000000 -0.000000 -0.000000 -0.000000 -0.000000 -37.966671 -0.000000 -15.328979 -26.576670 0.000000 0.000000 -26.576670 0.000000 0.000000 0.000000 -0.000000 0.000000 -40.160229 -0.000000 -10.951923 -28.112162 -0.000000 -0.000000 -28.112162 0.000000 -0.000000 -0.000000 -0.000000 0.000000 -0.000000 0.000000 -0.000000 -0.000000 -0.000000 -0.000000 7.440497 -2.690528 12.609502 -0.070430 -0.283714 13.955201 -8.286363 -15.270686 14.736925 0.228828 -1.019981 -28.688704 -0.000000 -0.000000 -0.000000 0.000000 0.000000 0.000000 0.000000 0.000000 0.000000 18.641478 -5.328068 -2.878244 1.080474 1.649120 33.214638 -1.580658 3.402352 21.857916 -0.124557 1.701922 -30.952635 -0.000000 -0.000000 -0.000000 0.000000 0.000000 -0.000000 -0.000000 0.000000 -0.000000 
-93.585258 86.245384 69.076225 -3.732822 26.196674 -15.197815 3.443132 -0.585118 4.996055 4.296558 -0.825218 4.208674 -1.255044 1.672731 7.885293 -1.907593 1.011639 0.528271 6.994141 -1.814280 14.930438 -4.700378 -2.295781 -4.321919 -0.393417 2.794236 -22.920813 -0.000000 -0.000000 0.000000 87.679474 0.431420 9.653109 17.012470 9.842413 17.509298 -0.099913 13.021763 117.167587 47.101624 56.299438 49.244507 16.637403 -2.084624 37.370129 0.000000 0.000000 -40.320000 -0.000000 0.000000 -28.000000 -0.000000 0.000000 0.000000 43.919338 0.000000 -11.058974 30.743538 0.000000 -0.000000 30.743538 -0.000000 -0.000000 -0.000000 0.000000 -0.000000 43.963013 0.000000 -10.910311 30.774109 -0.000000 -0.000000 30.774109 0.000000 0.000000 -0.000000 -0.000000 0.000000 46.057533 0.000000 -10.361001 32.240273 0.000000 0.000000 32.240273 0.000000 -0.000000 0.000000 -0.000000 0.000000 45.882355 0.000000 -11.132218 32.117649 0.000000 -0.000000 32.117649 0.000000 -0.000000 -0.000000 0.000000 -0.000000 0.000000 0.000000 -0.000000 0.000000 0.000000 -0.000000 -87.620018 -0.442366 8.910303 -25.650808 -3.618774 14.879274 -2.976644 -21.816130 107.535912 -69.997383 -44.648605 53.196632 -13.635410 2.027541 38.581211 0.000000 0.000000 -33.119999 -0.000000 0.000000 -23.000000 -0.000000 -0.000000 0.000000 -33.845665 -0.000000 -21.828215 -23.691965 0.000000 -0.000000 -23.691965 -0.000000 0.000000 0.000000 -0.000000 0.000000 -34.949722 -0.000000 -19.999405 -24.464806 0.000000 -0.000000 -24.464806 -0.000000 -0.000000 -0.000000 -0.000000 -0.000000 -39.484192 -0.000000 -15.193561 -27.638935 0.000000 0.000000 -27.638935 0.000000 0.000000 -0.000000 0.000000 0.000000 -41.770752 -0.000000 -10.675816 -29.239527 0.000000 -0.000000 -29.239527 0.000000 0.000000 -0.000000 -0.000000 -0.000000 -0.000000 0.000000 -0.000000 -0.000000 -0.000000 -0.000000 7.396707 -2.888857 12.761224 -0.068268 -0.278477 13.830701 -8.393725 -15.578833 14.717725 0.220827 -1.035382 -28.649050 -0.000000 -0.000000 -0.000000 0.000000 0.000000 0.000000 -0.000000 0.000000 -0.000000 18.520777 -5.407656 -2.994938 1.081920 1.658698 33.097134 -1.459923 3.289797 22.212355 -0.199922 1.660281 -31.006927 -0.000000 0.000000 -0.000000 0.000000 0.000000 -0.000000 0.000000 0.000000 -0.000000 
-93.731041 86.249039 69.169556 -3.574185 26.682714 -15.251390 3.367374 -0.587967 4.977427 4.428696 -0.865598 4.314179 -1.413206 1.702948 7.705631 -1.995482 1.007317 0.467559 6.679603 -1.898427 14.627963 -4.792001 -2.534966 -4.520655 -0.360540 2.780879 -23.035357 -0.000000 -0.000000 0.000000 87.736382 0.418900 9.588374 17.386642 11.690237 16.936045 -0.098800 13.100366 117.853867 47.247620 55.984962 49.936401 16.937567 -2.083497 37.253738 -0.000000 -0.000000 -41.040001 0.000000 -0.000000 -28.500000 -0.000000 -0.000000 0.000000 44.829868 -0.000000 -11.429902 31.380909 -0.000000 0.000000 31.380909 0.000000 -0.000000 -0.000000 -0.000000 0.000000 44.884892 -0.000000 -11.172208 31.419424 0.000000 0.000000 31.419424 0.000000 -0.000000 -0.000000 -0.000000 0.000000 47.095802 -0.000000 -10.506860 32.967060 0.000000 -0.000000 32.967060 0.000000 0.000000 -0.000000 -0.000000 0.000000 47.008392 -0.000000 -11.220020 32.905872 0.000000 -0.000000 32.905872 -0.000000 -0.000000 -0.000000 0.000000 0.000000 -0.000000 -0.000000 -0.000000 -0.000000 0.000000 -0.000000 -87.649223 -0.438607 8.981319 -26.651541 -5.094242 14.493474 -2.943639 -21.927126 108.645546 -69.225601 -44.087986 52.543373 -13.935537 2.038961 38.456390 -0.000000 0.000000 -33.840000 -0.000000 -0.000000 -23.500000 0.000000 0.000000 0.000000 -35.459511 -0.000000 -21.977465 -24.821657 0.000000 -0.000000 -24.821657 0.000000 0.000000 0.000000 -0.000000 0.000000 -36.521145 0.000000 -20.028803 -25.564802 -0.000000 0.000000 -25.564802 0.000000 -0.000000 -0.000000 0.000000 0.000000 -41.048893 -0.000000 -15.072027 -28.734226 0.000000 0.000000 -28.734226 -0.000000 -0.000000 -0.000000 0.000000 0.000000 -43.255619 -0.000000 -10.490175 -30.278934 -0.000000 -0.000000 -30.278934 0.000000 0.000000 -0.000000 -0.000000 0.000000 -0.000000 0.000000 -0.000000 -0.000000 -0.000000 -0.000000 7.337398 -3.124741 12.956470 -0.066731 -0.273457 13.737333 -8.488162 -15.852063 14.685902 0.214164 -1.049911 -28.612713 -0.000000 -0.000000 -0.000000 0.000000 0.000000 0.000000 0.000000 0.000000 0.000000 18.403147 -5.458203 -3.075424 1.083462 1.667133 33.023846 -1.338258 3.147994 22.562046 -0.263636 1.632129 -31.083385 0.000000 0.000000 -0.000000 0.000000 0.000000 -0.000000 0.000000 -0.000000 -0.000000 
